<svg width="183" height="40" viewBox="0 0 183 40" fill="none" xmlns="http://www.w3.org/2000/svg">
<g clip-path="url(#clip0_9_8)">
<mask id="mask0_9_8" style="mask-type:alpha" maskUnits="userSpaceOnUse" x="0" y="0" width="183" height="40">
<path d="M16.9506 30.5H0.270905V2.49218H6.57949V25.3828H16.9506V30.5ZM36.5029 22.2578H23.456C23.6644 25.1615 25.4938 26.6133 28.9443 26.6133C31.1448 26.6133 33.0784 26.0924 34.7451 25.0508V29.5039C32.8961 30.4935 30.4938 30.9883 27.5381 30.9883C24.3089 30.9883 21.8024 30.0964 20.0185 28.3125C18.2347 26.5156 17.3428 24.0156 17.3428 20.8125C17.3428 17.4922 18.3063 14.862 20.2334 12.9219C22.1605 10.9818 24.5303 10.0117 27.3428 10.0117C30.2594 10.0117 32.512 10.8776 34.1006 12.6094C35.7021 14.3411 36.5029 16.6914 36.5029 19.6602V22.2578ZM30.7803 18.4688C30.7803 15.6042 29.6214 14.1719 27.3037 14.1719C26.3141 14.1719 25.4547 14.582 24.7256 15.4023C24.0094 16.2227 23.5732 17.2448 23.417 18.4688H30.7803ZM37.2662 29.9727V24.9727C38.2818 25.5846 39.2909 26.0404 40.2935 26.3398C41.3092 26.6393 42.2662 26.7891 43.1646 26.7891C44.2584 26.7891 45.1178 26.6393 45.7428 26.3398C46.3808 26.0404 46.6998 25.5846 46.6998 24.9727C46.6998 24.582 46.5566 24.2565 46.2701 23.9961C45.9836 23.7357 45.6126 23.5078 45.1568 23.3125C44.7141 23.1172 44.2258 22.9414 43.692 22.7852C43.1581 22.6289 42.6438 22.4531 42.149 22.2578C41.3547 21.9583 40.6516 21.6393 40.0396 21.3008C39.4407 20.9492 38.9329 20.5456 38.5162 20.0898C38.1126 19.6341 37.8001 19.1068 37.5787 18.5078C37.3704 17.9089 37.2662 17.1992 37.2662 16.3789C37.2662 15.2591 37.5071 14.2956 37.9889 13.4883C38.4836 12.681 39.1347 12.0234 39.942 11.5156C40.7623 10.9948 41.6933 10.6172 42.735 10.3828C43.7896 10.1354 44.8834 10.0117 46.0162 10.0117C46.9016 10.0117 47.8001 10.0833 48.7115 10.2266C49.623 10.3568 50.5214 10.5521 51.4068 10.8125V15.5781C50.6256 15.1224 49.7857 14.7839 48.8873 14.5625C48.0019 14.3281 47.1295 14.2109 46.2701 14.2109C45.8665 14.2109 45.4823 14.25 45.1178 14.3281C44.7662 14.3932 44.4537 14.4974 44.1803 14.6406C43.9068 14.7708 43.692 14.9466 43.5357 15.168C43.3795 15.3763 43.3014 15.6172 43.3014 15.8906C43.3014 16.2552 43.4185 16.5677 43.6529 16.8281C43.8873 17.0885 44.1933 17.3164 44.5709 17.5117C44.9485 17.694 45.3652 17.8633 45.8209 18.0195C46.2896 18.1628 46.7519 18.3125 47.2076 18.4688C48.0279 18.7552 48.7701 19.0677 49.4342 19.4062C50.0982 19.7448 50.6646 20.1419 51.1334 20.5977C51.6152 21.0534 51.9797 21.5872 52.2271 22.1992C52.4876 22.8112 52.6178 23.5404 52.6178 24.3867C52.6178 25.5716 52.3573 26.5872 51.8365 27.4336C51.3287 28.2669 50.6451 28.9505 49.7857 29.4844C48.9394 30.0052 47.9563 30.3828 46.8365 30.6172C45.7297 30.8646 44.5774 30.9883 43.3795 30.9883C41.179 30.9883 39.1412 30.6497 37.2662 29.9727ZM53.2834 29.9727V24.9727C54.299 25.5846 55.3081 26.0404 56.3107 26.3398C57.3264 26.6393 58.2834 26.7891 59.1818 26.7891C60.2756 26.7891 61.135 26.6393 61.76 26.3398C62.398 26.0404 62.717 25.5846 62.717 24.9727C62.717 24.582 62.5738 24.2565 62.2873 23.9961C62.0008 23.7357 61.6297 23.5078 61.174 23.3125C60.7313 23.1172 60.243 22.9414 59.7092 22.7852C59.1753 22.6289 58.661 22.4531 58.1662 22.2578C57.3719 21.9583 56.6688 21.6393 56.0568 21.3008C55.4579 20.9492 54.9501 20.5456 54.5334 20.0898C54.1297 19.6341 53.8172 19.1068 53.5959 18.5078C53.3876 17.9089 53.2834 17.1992 53.2834 16.3789C53.2834 15.2591 53.5243 14.2956 54.006 13.4883C54.5008 12.681 55.1519 12.0234 55.9592 11.5156C56.7795 10.9948 57.7105 10.6172 58.7521 10.3828C59.8068 10.1354 60.9006 10.0117 62.0334 10.0117C62.9188 10.0117 63.8172 10.0833 64.7287 10.2266C65.6402 10.3568 66.5386 10.5521 67.424 10.8125V15.5781C66.6428 15.1224 65.8029 14.7839 64.9045 14.5625C64.0191 14.3281 63.1467 14.2109 62.2873 14.2109C61.8837 14.2109 61.4995 14.25 61.135 14.3281C60.7834 14.3932 60.4709 14.4974 60.1975 14.6406C59.924 14.7708 59.7092 14.9466 59.5529 15.168C59.3967 15.3763 59.3185 15.6172 59.3185 15.8906C59.3185 16.2552 59.4357 16.5677 59.6701 16.8281C59.9045 17.0885 60.2105 17.3164 60.5881 17.5117C60.9657 17.694 61.3823 17.8633 61.8381 18.0195C62.3068 18.1628 62.7691 18.3125 63.2248 18.4688C64.0451 18.7552 64.7873 19.0677 65.4514 19.4062C66.1154 19.7448 66.6818 20.1419 67.1506 20.5977C67.6323 21.0534 67.9969 21.5872 68.2443 22.1992C68.5047 22.8112 68.635 23.5404 68.635 24.3867C68.635 25.5716 68.3745 26.5872 67.8537 27.4336C67.3459 28.2669 66.6623 28.9505 65.8029 29.4844C64.9566 30.0052 63.9735 30.3828 62.8537 30.6172C61.7469 30.8646 60.5946 30.9883 59.3967 30.9883C57.1962 30.9883 55.1584 30.6497 53.2834 29.9727ZM80.1404 30.9883C76.8071 30.9883 74.1834 30.0573 72.2693 28.1953C70.3683 26.3203 69.4178 23.7812 69.4178 20.5781C69.4178 17.2708 70.4073 14.6862 72.3865 12.8242C74.3657 10.9492 77.0415 10.0117 80.4139 10.0117C83.7342 10.0117 86.3383 10.9492 88.2264 12.8242C90.1144 14.6862 91.0584 17.1536 91.0584 20.2266C91.0584 23.5469 90.0818 26.1706 88.1287 28.0977C86.1886 30.0247 83.5258 30.9883 80.1404 30.9883ZM80.2967 14.7383C78.8383 14.7383 77.7055 15.2396 76.8982 16.2422C76.0909 17.2448 75.6873 18.6641 75.6873 20.5C75.6873 24.3411 77.2368 26.2617 80.3357 26.2617C83.2915 26.2617 84.7693 24.2891 84.7693 20.3438C84.7693 16.6068 83.2784 14.7383 80.2967 14.7383ZM112.779 30.5H106.626V19.3867C106.626 16.2878 105.52 14.7383 103.306 14.7383C102.238 14.7383 101.359 15.1484 100.669 15.9688C99.979 16.7891 99.634 17.8307 99.634 19.0938V30.5H93.4623V10.5H99.634V13.6641H99.712C101.184 11.2292 103.326 10.0117 106.138 10.0117C110.565 10.0117 112.779 12.7591 112.779 18.2539V30.5ZM129.128 16.0664C128.386 15.6628 127.52 15.4609 126.53 15.4609C125.189 15.4609 124.141 15.9557 123.386 16.9453C122.631 17.9219 122.253 19.2565 122.253 20.9492V30.5H116.081V10.5H122.253V14.2109H122.331C123.308 11.5026 125.065 10.1484 127.604 10.1484C128.256 10.1484 128.763 10.2266 129.128 10.3828V16.0664ZM133.7 7.33588C132.658 7.33588 131.805 7.02988 131.141 6.41798C130.477 5.79298 130.145 5.03118 130.145 4.13278C130.145 3.20828 130.477 2.45308 131.141 1.86718C131.805 1.28118 132.658 0.988281 133.7 0.988281C134.754 0.988281 135.607 1.28118 136.258 1.86718C136.922 2.45308 137.254 3.20828 137.254 4.13278C137.254 5.07028 136.922 5.83848 136.258 6.43748C135.607 7.03648 134.754 7.33588 133.7 7.33588ZM136.747 30.5H130.575V10.5H136.747V30.5ZM159.658 30.5H153.506V19.3867C153.506 16.2878 152.399 14.7383 150.186 14.7383C149.118 14.7383 148.239 15.1484 147.549 15.9688C146.859 16.7891 146.514 17.8307 146.514 19.0938V30.5H140.342V10.5H146.514V13.6641H146.592C148.063 11.2292 150.205 10.0117 153.018 10.0117C157.445 10.0117 159.658 12.7591 159.658 18.2539V30.5ZM182.57 28.2148C182.57 31.9258 181.496 34.7969 179.347 36.8281C177.199 38.8724 174.087 39.8945 170.012 39.8945C167.316 39.8945 165.181 39.5104 163.605 38.7422V33.5469C165.663 34.7448 167.739 35.3438 169.836 35.3438C171.919 35.3438 173.534 34.7904 174.679 33.6836C175.825 32.5898 176.398 31.099 176.398 29.2109V27.6289H176.32C174.914 29.8685 172.837 30.9883 170.09 30.9883C167.538 30.9883 165.513 30.0898 164.015 28.293C162.518 26.4961 161.769 24.0872 161.769 21.0664C161.769 17.681 162.603 14.9922 164.269 13C165.936 11.0078 168.13 10.0117 170.851 10.0117C173.286 10.0117 175.109 10.9492 176.32 12.8242H176.398V10.5H182.57V28.2148ZM176.476 20.8906V19.3086C176.476 18.0456 176.099 16.9714 175.344 16.0859C174.601 15.1875 173.631 14.7383 172.433 14.7383C171.066 14.7383 169.992 15.2721 169.211 16.3398C168.429 17.4076 168.039 18.9115 168.039 20.8516C168.039 22.5182 168.41 23.8398 169.152 24.8164C169.894 25.7799 170.91 26.2617 172.199 26.2617C173.475 26.2617 174.504 25.7734 175.285 24.7969C176.079 23.8073 176.476 22.5052 176.476 20.8906Z" fill="#1E1E1E"/>
</mask>
<g mask="url(#mask0_9_8)">
<path d="M182.57 0.98822H0.270905V39.8944H182.57V0.98822Z" fill="#399BB0"/>
<g filter="url(#filter0_f_9_8)">
<path d="M32.5629 33.751L43.9785 -0.728943" stroke="#B2D763" stroke-width="4"/>
</g>
<g filter="url(#filter1_f_9_8)">
<path d="M87.4963 33.751L98.912 -0.728943" stroke="#B263D7" stroke-width="4"/>
</g>
<g filter="url(#filter2_f_9_8)">
<path d="M142.43 33.751L153.845 -0.728943" stroke="#D76363" stroke-width="4"/>
</g>
<g filter="url(#filter3_f_9_8)">
<path d="M6.67605 32.3827L-1.21167 10.4547" stroke="#63A6D7" stroke-width="4"/>
</g>
<g filter="url(#filter4_f_9_8)">
<path d="M61.6094 32.3827L53.7217 10.4547" stroke="#B2D763" stroke-width="4"/>
</g>
<g filter="url(#filter5_f_9_8)">
<path d="M116.543 32.3827L108.655 10.4547" stroke="#B263D7" stroke-width="4"/>
</g>
<g filter="url(#filter6_f_9_8)">
<path d="M171.476 32.3827L163.588 10.4547" stroke="#D76363" stroke-width="4"/>
</g>
<g filter="url(#filter7_f_9_8)">
<path d="M11.9355 19.6473L23.0605 2.63177" stroke="#63A6D7" stroke-width="4"/>
</g>
<g filter="url(#filter8_f_9_8)">
<path d="M66.8689 19.6473L77.9938 2.63177" stroke="#B2D763" stroke-width="4"/>
</g>
<g filter="url(#filter9_f_9_8)">
<path d="M121.802 19.6473L132.927 2.63177" stroke="#B263D7" stroke-width="4"/>
</g>
<g filter="url(#filter10_f_9_8)">
<path d="M176.736 19.6473L187.861 2.63177" stroke="#D76363" stroke-width="4"/>
</g>
</g>
</g>
<defs>
<filter id="filter0_f_9_8" x="24.6643" y="-7.35754" width="27.2129" height="47.7371" filterUnits="userSpaceOnUse" color-interpolation-filters="sRGB">
<feFlood flood-opacity="0" result="BackgroundImageFix"/>
<feBlend mode="normal" in="SourceGraphic" in2="BackgroundImageFix" result="shape"/>
<feGaussianBlur stdDeviation="3" result="effect1_foregroundBlur_9_8"/>
</filter>
<filter id="filter1_f_9_8" x="79.5977" y="-7.35754" width="27.213" height="47.7371" filterUnits="userSpaceOnUse" color-interpolation-filters="sRGB">
<feFlood flood-opacity="0" result="BackgroundImageFix"/>
<feBlend mode="normal" in="SourceGraphic" in2="BackgroundImageFix" result="shape"/>
<feGaussianBlur stdDeviation="3" result="effect1_foregroundBlur_9_8"/>
</filter>
<filter id="filter2_f_9_8" x="134.531" y="-7.35754" width="27.2123" height="47.7371" filterUnits="userSpaceOnUse" color-interpolation-filters="sRGB">
<feFlood flood-opacity="0" result="BackgroundImageFix"/>
<feBlend mode="normal" in="SourceGraphic" in2="BackgroundImageFix" result="shape"/>
<feGaussianBlur stdDeviation="3" result="effect1_foregroundBlur_9_8"/>
</filter>
<filter id="filter3_f_9_8" x="-9.09363" y="3.77771" width="23.6516" height="35.2819" filterUnits="userSpaceOnUse" color-interpolation-filters="sRGB">
<feFlood flood-opacity="0" result="BackgroundImageFix"/>
<feBlend mode="normal" in="SourceGraphic" in2="BackgroundImageFix" result="shape"/>
<feGaussianBlur stdDeviation="3" result="effect1_foregroundBlur_9_8"/>
</filter>
<filter id="filter4_f_9_8" x="45.8398" y="3.77771" width="23.6516" height="35.2819" filterUnits="userSpaceOnUse" color-interpolation-filters="sRGB">
<feFlood flood-opacity="0" result="BackgroundImageFix"/>
<feBlend mode="normal" in="SourceGraphic" in2="BackgroundImageFix" result="shape"/>
<feGaussianBlur stdDeviation="3" result="effect1_foregroundBlur_9_8"/>
</filter>
<filter id="filter5_f_9_8" x="100.773" y="3.77765" width="23.6519" height="35.282" filterUnits="userSpaceOnUse" color-interpolation-filters="sRGB">
<feFlood flood-opacity="0" result="BackgroundImageFix"/>
<feBlend mode="normal" in="SourceGraphic" in2="BackgroundImageFix" result="shape"/>
<feGaussianBlur stdDeviation="3" result="effect1_foregroundBlur_9_8"/>
</filter>
<filter id="filter6_f_9_8" x="155.706" y="3.77765" width="23.6519" height="35.282" filterUnits="userSpaceOnUse" color-interpolation-filters="sRGB">
<feFlood flood-opacity="0" result="BackgroundImageFix"/>
<feBlend mode="normal" in="SourceGraphic" in2="BackgroundImageFix" result="shape"/>
<feGaussianBlur stdDeviation="3" result="effect1_foregroundBlur_9_8"/>
</filter>
<filter id="filter7_f_9_8" x="4.26154" y="-4.46271" width="26.4729" height="31.2045" filterUnits="userSpaceOnUse" color-interpolation-filters="sRGB">
<feFlood flood-opacity="0" result="BackgroundImageFix"/>
<feBlend mode="normal" in="SourceGraphic" in2="BackgroundImageFix" result="shape"/>
<feGaussianBlur stdDeviation="3" result="effect1_foregroundBlur_9_8"/>
</filter>
<filter id="filter8_f_9_8" x="59.1949" y="-4.46271" width="26.4728" height="31.2045" filterUnits="userSpaceOnUse" color-interpolation-filters="sRGB">
<feFlood flood-opacity="0" result="BackgroundImageFix"/>
<feBlend mode="normal" in="SourceGraphic" in2="BackgroundImageFix" result="shape"/>
<feGaussianBlur stdDeviation="3" result="effect1_foregroundBlur_9_8"/>
</filter>
<filter id="filter9_f_9_8" x="114.128" y="-4.46271" width="26.4729" height="31.2045" filterUnits="userSpaceOnUse" color-interpolation-filters="sRGB">
<feFlood flood-opacity="0" result="BackgroundImageFix"/>
<feBlend mode="normal" in="SourceGraphic" in2="BackgroundImageFix" result="shape"/>
<feGaussianBlur stdDeviation="3" result="effect1_foregroundBlur_9_8"/>
</filter>
<filter id="filter10_f_9_8" x="169.062" y="-4.46271" width="26.4729" height="31.2045" filterUnits="userSpaceOnUse" color-interpolation-filters="sRGB">
<feFlood flood-opacity="0" result="BackgroundImageFix"/>
<feBlend mode="normal" in="SourceGraphic" in2="BackgroundImageFix" result="shape"/>
<feGaussianBlur stdDeviation="3" result="effect1_foregroundBlur_9_8"/>
</filter>
<clipPath id="clip0_9_8">
<rect width="182.299" height="38.9062" fill="white" transform="translate(0.270905 0.988281)"/>
</clipPath>
</defs>
</svg>
